<svg width="20" height="31" viewBox="0 0 20 31" fill="none" xmlns="http://www.w3.org/2000/svg">
<path d="M15.5299 30.9914C15.1976 30.9914 14.8652 30.911 14.5715 30.7559C14.0879 30.5002 13.7318 30.0579 13.5953 29.5438L12.3046 24.7069C12.2512 24.503 12.1444 24.3163 11.9961 24.1612L7.94302 19.9161C6.80663 18.727 6.41794 17.0295 6.92828 15.4842L7.95192 12.3851C7.99643 12.2529 7.91335 12.1754 7.87478 12.1467C7.83621 12.1179 7.73533 12.0634 7.61664 12.1381L6.47728 12.8561C6.1242 13.0801 5.83936 13.3932 5.65837 13.7637L4.81275 15.6537C4.37362 16.636 3.22535 17.0927 2.19874 16.6905C1.67654 16.4866 1.27598 16.096 1.07125 15.5876C0.86652 15.0792 0.884323 14.5306 1.12466 14.0366C1.14543 13.9906 1.6973 12.8274 1.90797 12.431C2.37973 11.5435 2.81886 10.9489 3.42712 10.3774L3.7535 10.07C6.08859 8.05374 9.27228 7.30696 12.0732 8.10831C14.5181 8.80914 16.3191 10.6158 17.0164 13.0658C17.1885 13.6747 17.6128 14.2578 18.2715 14.7977L19.1527 15.4038C19.5918 15.7054 19.8826 16.1506 19.9716 16.6647C20.0606 17.1759 19.939 17.6929 19.6274 18.1152C19.307 18.5517 18.8263 18.8361 18.2774 18.9108C17.7285 18.9883 17.1855 18.8447 16.7493 18.5115L14.6219 16.883C14.3786 16.6963 14.1858 16.4521 14.0641 16.1735L13.3698 14.568C13.3639 14.5536 13.358 14.5277 13.3164 14.5335C13.2778 14.5364 13.2689 14.5593 13.266 14.5708L12.1504 18.4483C12.1326 18.5115 12.1474 18.5805 12.1949 18.6293L15.5506 22.2971C15.7257 22.4867 15.8533 22.7194 15.9186 22.9635L17.4585 28.5471C17.7314 29.538 17.1588 30.5634 16.153 30.8822C15.9482 30.9598 15.7405 30.9914 15.5299 30.9914ZM7.73829 11.2419C7.97566 11.2419 8.21303 11.3166 8.41182 11.4659C8.79161 11.7474 8.94293 12.2127 8.79754 12.6522L7.7739 15.7484C7.36147 16.9979 7.67599 18.3679 8.59578 19.3301L12.6488 23.5724C12.8951 23.8309 13.0761 24.1469 13.1651 24.4886L14.4558 29.3255C14.5329 29.6156 14.7258 29.854 14.9958 29.9976C15.2658 30.1412 15.5773 30.1699 15.8711 30.0751C16.4289 29.8971 16.7464 29.3284 16.595 28.7798L15.0551 23.1961C15.0225 23.0784 14.9632 22.9692 14.8801 22.8802L11.5273 19.2152C11.281 18.9452 11.192 18.5776 11.2929 18.2301L12.4115 14.3439C12.5301 13.959 12.8684 13.7063 13.2719 13.6862C13.6725 13.669 14.0374 13.8872 14.1917 14.2463L14.886 15.8518C14.9483 15.9955 15.0462 16.1218 15.1738 16.2195L17.3012 17.848C17.5445 18.0319 17.8472 18.1123 18.1498 18.0692C18.4554 18.0261 18.7225 17.871 18.9034 17.6269C19.0755 17.3914 19.1438 17.1041 19.0933 16.8198C19.0429 16.5354 18.8827 16.2856 18.6364 16.119L17.7107 15.4813C16.9007 14.8236 16.3785 14.0912 16.1559 13.3071C15.5358 11.1184 13.9959 9.5674 11.821 8.947C9.31085 8.22894 6.45058 8.90679 4.35878 10.7134L4.04724 11.0093C3.50723 11.5177 3.13041 12.0289 2.70018 12.8389C2.49842 13.218 1.93764 14.4014 1.9317 14.4129C1.79522 14.6943 1.78335 15.0017 1.89907 15.286C2.01478 15.5704 2.23731 15.7887 2.53106 15.9035C3.10667 16.1305 3.74756 15.872 3.99383 15.3234L4.84835 13.4133C5.10055 12.8963 5.49518 12.4597 5.99068 12.1467L7.13004 11.4286C7.31994 11.2994 7.5306 11.2419 7.73829 11.2419ZM3.26689 30.4658L7.11224 26.7807C7.47126 26.436 7.7472 26.031 7.93115 25.5772L8.78271 23.4776C8.87172 23.2565 8.75897 23.0066 8.53051 22.9175C8.30204 22.8314 8.0439 22.9405 7.95489 23.1617L7.10334 25.2613C6.96388 25.6031 6.75619 25.9075 6.48618 26.1689L2.64084 29.854C2.24622 30.2331 1.59939 30.236 1.19883 29.8597C1.00301 29.673 0.893224 29.426 0.890257 29.1589C0.88729 28.8918 0.991138 28.6419 1.184 28.4523L4.82758 24.8534C4.99374 24.6897 5.12429 24.4944 5.21034 24.279L6.30816 21.5475C6.39717 21.3263 6.28442 21.0764 6.05596 20.9903C5.82749 20.9041 5.56935 21.0132 5.48034 21.2344L4.38252 23.9659C4.34098 24.0722 4.2757 24.167 4.19559 24.2474L0.549042 27.8463C0.190025 28.2024 -0.00580315 28.6706 0.000131024 29.1675C0.0060652 29.6644 0.210794 30.1268 0.578713 30.4744C0.949599 30.8248 1.43323 31 1.91687 31C2.40644 31 2.89601 30.8219 3.26689 30.4658ZM13.0167 6.22987C11.2424 6.22987 9.79745 4.83109 9.79745 3.1135C9.79745 1.3959 11.2424 0 13.0167 0C14.7911 0 16.236 1.39878 16.236 3.11637C16.236 4.83397 14.7911 6.22987 13.0167 6.22987ZM13.0167 0.86167C11.732 0.86167 10.6876 1.8727 10.6876 3.11637C10.6876 4.36005 11.732 5.37107 13.0167 5.37107C14.3015 5.37107 15.3459 4.36005 15.3459 3.11637C15.3459 1.8727 14.2985 0.86167 13.0167 0.86167Z" fill="#C1BDC7"/>
</svg>
